<svg class="w-10 h-10" viewBox="0 0 136 154" fill="none" xmlns="http://www.w3.org/2000/svg">
  <path fill-rule="evenodd" clip-rule="evenodd" d="M67.9026 0L0 118.573L135.805 118.573L67.9026 0ZM67.9026 8.69538L7.46928 114.226L128.336 114.226L67.9026 8.69538Z" fill="#ffffff"/>
  <path fill-rule="evenodd" clip-rule="evenodd" d="M67.9026 0L0 118.573L135.805 118.573L67.9026 0ZM67.9026 8.69538L7.46928 114.226L128.336 114.226L67.9026 8.69538Z" fill="#ffffff" fill-opacity="0.2"/>
  <path d="M19.6592 107.111H24.654L75.9204 17.5885L73.3777 13.3066L19.6592 107.111Z" fill="#ffffff"/>
  <path d="M19.6592 107.111H24.654L75.9204 17.5885L73.3777 13.3066L19.6592 107.111Z" fill="#ffffff" fill-opacity="0.2"/>
  <path d="M122.87 116.466L119.116 118.633L67.3251 28.1943L69.7924 23.7808L122.87 116.466Z" fill="#ffffff"/>
  <path d="M122.87 116.466L119.116 118.633L67.3251 28.1943L69.7924 23.7808L122.87 116.466Z" fill="#ffffff" fill-opacity="0.2"/>
  <path d="M42.2573 93.5414H47.2521L77.4688 40.7763L75.0769 36.231L42.2573 93.5414Z" fill="#ffffff"/>
  <path d="M42.2573 93.5414H47.2521L77.4688 40.7763L75.0769 36.231L42.2573 93.5414Z" fill="#ffffff" fill-opacity="0.2"/>
  <path d="M97.5404 106.848L102.535 106.848L69.6024 49.3398L67.2483 53.951L97.5404 106.848Z" fill="#ffffff"/>
  <path d="M97.5404 106.848L102.535 106.848L69.6024 49.3398L67.2483 53.951L97.5404 106.848Z" fill="#ffffff" fill-opacity="0.2"/>
  <path fill-rule="evenodd" clip-rule="evenodd" d="M114.546 107.924L9.81552 108.165L9.80788 103.818L114.538 103.576L114.546 107.924Z" fill="#ffffff"/>
  <path fill-rule="evenodd" clip-rule="evenodd" d="M114.546 107.924L9.81552 108.165L9.80788 103.818L114.538 103.576L114.546 107.924Z" fill="#ffffff" fill-opacity="0.2"/>
  <path d="M57.9468 93.4095H62.9416L69.9363 81.195L67.34 77.0068L57.9468 93.4095Z" fill="#ffffff"/>
  <path d="M57.9468 93.4095H62.9416L69.9363 81.195L67.34 77.0068L57.9468 93.4095Z" fill="#ffffff" fill-opacity="0.2"/>
  <path d="M74.2303 93.4092L79.2251 93.4092L62.0986 63.5024L59.7444 68.1136L74.2303 93.4092Z" fill="#ffffff"/>
  <path d="M74.2303 93.4092L79.2251 93.4092L62.0986 63.5024L59.7444 68.1136L74.2303 93.4092Z" fill="#ffffff" fill-opacity="0.2"/>
  <path fill-rule="evenodd" clip-rule="evenodd" d="M94.011 97.6477L28.5133 97.889L28.5057 93.5413L94.0034 93.3L94.011 97.6477Z" fill="#ffffff"/>
  <path fill-rule="evenodd" clip-rule="evenodd" d="M94.011 97.6477L28.5133 97.889L28.5057 93.5413L94.0034 93.3L94.011 97.6477Z" fill="#ffffff" fill-opacity="0.2"/>
</svg>
